<?xml version="1.0" standalone="no"?>
<!DOCTYPE svg PUBLIC "-//W3C//DTD SVG 20010904//EN"
 "http://www.w3.org/TR/2001/REC-SVG-20010904/DTD/svg10.dtd">
<svg version="1.0" xmlns="http://www.w3.org/2000/svg"
 width="421.000000pt" height="421.000000pt" viewBox="0 0 421.000000 421.000000"
 preserveAspectRatio="xMidYMid meet">
<metadata>
Created by potrace 1.11, written by Peter Selinger 2001-2013
</metadata>
<g transform="translate(0.000000,421.000000) scale(0.100000,-0.100000)"
fill="#000000" stroke="none">
<path d="M1328 3681 c-130 -25 -186 -45 -255 -90 -78 -51 -128 -109 -172 -200
-35 -74 -36 -79 -35 -186 0 -102 3 -116 33 -185 18 -41 37 -79 41 -83 4 -5
-18 -64 -50 -130 -122 -254 -232 -555 -336 -917 -91 -316 -117 -392 -175 -505
-28 -55 -66 -129 -85 -165 -31 -60 -43 -100 -110 -345 -13 -49 -43 -128 -65
-174 -52 -106 -58 -145 -31 -198 43 -84 147 -143 252 -143 76 0 135 15 245 60
106 44 652 321 995 505 950 510 1110 585 1470 693 125 37 468 100 635 117 79
7 207 47 271 84 78 46 160 125 190 187 32 65 42 159 24 235 -18 81 -82 206
-142 278 -101 123 -521 417 -878 614 -336 185 -916 441 -1129 498 -246 65
-513 84 -693 50z"/>
</g>
</svg>
