<svg xmlns="http://www.w3.org/2000/svg" viewBox="0 0 200 200"><defs><style>.cls-1{fill:#fac05d;}.cls-2{fill:#cd2e2d;stroke:#020202;}.cls-10,.cls-11,.cls-12,.cls-13,.cls-14,.cls-15,.cls-2,.cls-3,.cls-4,.cls-8,.cls-9{stroke-miterlimit:10;}.cls-3{fill:#f5fcae;}.cls-10,.cls-11,.cls-12,.cls-13,.cls-14,.cls-15,.cls-3,.cls-4{stroke:#000;}.cls-4{fill:#d24025;}.cls-5{fill:#078146;}.cls-6{fill:#ff1d25;}.cls-15,.cls-7{fill:#fff;}.cls-8{fill:#f12b23;stroke:#fff;}.cls-11,.cls-9{fill:none;}.cls-9{stroke:#ff1d25;stroke-width:2px;}.cls-10{fill:#428257;}.cls-13{fill:#ea7279;}.cls-14{fill:#f89f53;}</style></defs><title>Artboard 1</title><g id="pizza"><path class="cls-1" d="M100,182a6.73,6.73,0,0,1-3.56-1.18,13.6,13.6,0,0,0-4.9-1.83,9.54,9.54,0,0,0-1.56-.14,10,10,0,0,0-1.37.11,13.9,13.9,0,0,1-2,.14c-.63,0-1.32,0-2.13-.12-3-.29-5-.54-6.75-1.9a5.92,5.92,0,0,1-1.49-1.62A3.31,3.31,0,0,0,74.69,174a3.59,3.59,0,0,0-1.4-.29,6.18,6.18,0,0,0-2.51.7,5.81,5.81,0,0,1-2.35.67,3.25,3.25,0,0,1-.82-.1A4.1,4.1,0,0,1,65.23,173,6.24,6.24,0,0,0,61.64,170a8.43,8.43,0,0,0-1.79-.3,3.59,3.59,0,0,1-2.06-.63,4.19,4.19,0,0,1-1.4-1.92c-.14-.3-.28-.61-.46-.92-1.23-2.17-3.15-2.81-5.19-3.5a11.8,11.8,0,0,1-4.9-2.61A4.69,4.69,0,0,1,44.57,158c-.31-.81-.74-1.91-1.62-3.71A52.24,52.24,0,0,0,37.9,146,21.11,21.11,0,0,1,34,138.37a47.35,47.35,0,0,1-1-6.91,71.5,71.5,0,0,1-.42-7.26,24.39,24.39,0,0,0-.59-5.81,18.71,18.71,0,0,0-1.82-5,9,9,0,0,1-1.17-3.9,10.63,10.63,0,0,1,.75-5.19A20.52,20.52,0,0,0,31,98.54a18.51,18.51,0,0,0-.64-6.84A12.88,12.88,0,0,1,30,85.58c.64-4,2.32-6.94,3.94-9.83a31.81,31.81,0,0,1,4.92-6.9,21.38,21.38,0,0,1,4.81-3.78,27.1,27.1,0,0,0,3.15-2.18,15.91,15.91,0,0,0,5-6.89,19,19,0,0,1,3.06-5.17C57,48.31,63.64,46.06,75.66,42c9.43-3.21,14.63-5,17.76-5a39.19,39.19,0,0,1,4.79.38,30.09,30.09,0,0,0,3.76.31,16.1,16.1,0,0,0,4.67-.7l1.06-.33a13,13,0,0,1,4-.84,7.43,7.43,0,0,1,1.64.18,9.4,9.4,0,0,1,4.75,2.86l.05.06.07,0a128.25,128.25,0,0,0,15.06,7c2.31.9,4.26,1.58,6,2.18,4.88,1.7,7.57,2.63,9.8,5.66A15.84,15.84,0,0,1,150.87,57a13.67,13.67,0,0,0,3.29,4.87A13.91,13.91,0,0,0,158,64.52a9,9,0,0,1,3.14,2.31A10.75,10.75,0,0,1,163.54,72a38.24,38.24,0,0,0,1.5,4.7,23.45,23.45,0,0,0,3.57,6.25,23.22,23.22,0,0,1,2.45,3.79c2.07,4.08,2.09,9,1.95,19.77s-.22,16-2,21.86a63.44,63.44,0,0,1-7,14.89c-3.27,5.48-4.91,8.23-7.9,10.88-.35.31-.7.6-1.05.9a20.58,20.58,0,0,0-4,4.19c-.46.65-.79,1.19-1.07,1.66a6.88,6.88,0,0,1-1.82,2.23,5.63,5.63,0,0,1-2.53,1.11,8.81,8.81,0,0,0-2.4.85,7.1,7.1,0,0,0-3.11,3.36,9.49,9.49,0,0,1-2,2.71c-1.43,1.3-2.61,1.46-4.39,1.69a25.59,25.59,0,0,0-5.43,1.2,16.72,16.72,0,0,0-6.39,3.68,7.89,7.89,0,0,1-4.53,2.3,11.54,11.54,0,0,1-2,.17,16.79,16.79,0,0,1-3.28-.39,16.56,16.56,0,0,0-3.2-.39,11.41,11.41,0,0,0-3.65.63,12.32,12.32,0,0,0-2.58,1.2,4.39,4.39,0,0,1-2.29.78Z"/><path d="M111.76,36.31h0a6.94,6.94,0,0,1,1.53.17,8.92,8.92,0,0,1,4.49,2.71l.11.11.14.07a128.66,128.66,0,0,0,15.12,7.05c2.32.9,4.27,1.58,6,2.18,4.94,1.72,7.42,2.58,9.56,5.48a15.2,15.2,0,0,1,1.72,3.1,14.09,14.09,0,0,0,3.39,5,14.34,14.34,0,0,0,4,2.75,8.52,8.52,0,0,1,3,2.19,10.36,10.36,0,0,1,2.3,5,39.17,39.17,0,0,0,1.52,4.76,23.88,23.88,0,0,0,3.63,6.37,22.82,22.82,0,0,1,2.4,3.72c2,4,2,8.86,1.89,19.53s-.22,15.94-2,21.73a63.05,63.05,0,0,1-6.9,14.78c-3.25,5.43-4.88,8.16-7.81,10.77-.34.31-.69.6-1,.89a21,21,0,0,0-4.11,4.28c-.47.66-.8,1.21-1.09,1.69a6.41,6.41,0,0,1-1.7,2.09,5.15,5.15,0,0,1-2.34,1,9.21,9.21,0,0,0-2.52.89,7.61,7.61,0,0,0-3.31,3.56,9,9,0,0,1-1.89,2.58c-1.31,1.2-2.31,1.33-4.12,1.57a26,26,0,0,0-5.53,1.23,17.13,17.13,0,0,0-6.56,3.78,7.39,7.39,0,0,1-4.29,2.18,11.08,11.08,0,0,1-1.87.16,16.19,16.19,0,0,1-3.18-.39,16.94,16.94,0,0,0-3.29-.4,11.9,11.9,0,0,0-3.81.66,12.79,12.79,0,0,0-2.68,1.24,3.9,3.9,0,0,1-2.07.71H100a6.25,6.25,0,0,1-3.32-1.12,14.23,14.23,0,0,0-5.06-1.89,10,10,0,0,0-1.64-.15,10.43,10.43,0,0,0-1.44.12,13.24,13.24,0,0,1-1.9.14c-.61,0-1.29,0-2.09-.11-3-.29-4.8-.52-6.49-1.8a5.43,5.43,0,0,1-1.37-1.5,3.82,3.82,0,0,0-1.85-1.63,4.13,4.13,0,0,0-1.59-.33,6.57,6.57,0,0,0-2.71.74,5.44,5.44,0,0,1-2.15.62,2.77,2.77,0,0,1-.69-.09c-1-.26-1.47-.93-2.1-1.86a6.74,6.74,0,0,0-3.86-3.13,8.84,8.84,0,0,0-1.89-.32,3.11,3.11,0,0,1-1.81-.54A3.69,3.69,0,0,1,56.85,167c-.14-.31-.29-.63-.48-1-1.33-2.34-3.43-3-5.46-3.72a11.41,11.41,0,0,1-4.71-2.5,4.23,4.23,0,0,1-1.16-2c-.3-.77-.75-1.93-1.64-3.75a52.69,52.69,0,0,0-5.1-8.4,20.45,20.45,0,0,1-3.84-7.43,47.26,47.26,0,0,1-1-6.84,70.92,70.92,0,0,1-.42-7.2,24.8,24.8,0,0,0-.6-5.91,19.15,19.15,0,0,0-1.86-5.15,8.46,8.46,0,0,1-1.12-3.72,10.22,10.22,0,0,1,.73-5,21,21,0,0,0,1.28-5.85,18.94,18.94,0,0,0-.65-7,12.46,12.46,0,0,1-.36-5.92c.62-3.86,2.28-6.81,3.88-9.67a31.4,31.4,0,0,1,4.85-6.8,21,21,0,0,1,4.71-3.7,27.52,27.52,0,0,0,3.2-2.22,16.53,16.53,0,0,0,5.14-7.08,18.62,18.62,0,0,1,3-5c2.05-2.41,9-4.78,20.56-8.7,9.07-3.09,14.55-4.95,17.6-4.95h.07a38.61,38.61,0,0,1,4.66.37,30.49,30.49,0,0,0,3.82.31,16.58,16.58,0,0,0,4.81-.72l1.08-.34a12.57,12.57,0,0,1,3.9-.81m0-1a17.94,17.94,0,0,0-5.26,1.19,15.57,15.57,0,0,1-4.53.68c-2.64,0-5-.65-8.47-.68h-.08c-3.15,0-8.14,1.68-17.92,5-12.51,4.25-18.81,6.43-21,9-3.87,4.54-2.81,7.75-8,12-2.89,2.36-4.78,2.65-8,6a32.18,32.18,0,0,0-5,7,29.31,29.31,0,0,0-4,10c-.93,5.8,1.52,6.41,1,13-.46,5.76-2.42,6.33-2,11,.36,4,1.8,3.68,3,9,1,4.37.2,5.46,1,13a47.54,47.54,0,0,0,1,7c1.77,6.48,4.76,7.3,9,16,2.09,4.3,1.65,4.68,3,6,3.47,3.38,7.88,2.28,10,6,.61,1.08.79,2.13,2,3s2.34.51,4,1c3.49,1,3.13,4.27,6,5a3.78,3.78,0,0,0,.94.12c1.84,0,3.19-1.37,4.86-1.37a3.1,3.1,0,0,1,1.21.25c1.47.61,1.16,1.6,3,3s4.09,1.72,7,2c.9.09,1.6.12,2.18.12,1.63,0,2.26-.25,3.34-.25a9.08,9.08,0,0,1,1.48.13c4.42.72,5.38,3,8.54,3l.46,0c2.15-.14,2.26-1.08,5-2a10.81,10.81,0,0,1,3.5-.61c2.28,0,4,.78,6.47.78a12.11,12.11,0,0,0,2-.17c5-.85,4.12-3.65,11-6,5.44-1.85,7.32-.55,10-3,2.46-2.25,2.05-4.41,5-6,2-1.09,3.12-.55,5-2,1.45-1.12,1.66-2.11,3-4a25.85,25.85,0,0,1,5-5c3-2.71,4.76-5.58,8-11a64.11,64.11,0,0,0,7-15c1.78-5.92,1.85-11.28,2-22,.14-10.43.17-15.73-2-20-2.06-4.06-3.87-4.62-6-10-2-5-1.46-7.13-4-10-2.39-2.7-3.93-2-7-5s-2.81-5-5-8c-3.11-4.22-7-4.49-16-8a126.85,126.85,0,0,1-15-7,10,10,0,0,0-5-3,8,8,0,0,0-1.74-.19Z"/><path class="cls-2" d="M39.5,91.5c2.34-6.29,2.39-6,3-8,1.4-4.63.8-5.09,2-7,1.37-2.19,2.62-2.33,6-5a51.71,51.71,0,0,0,7-7c4.23-5.16,3-6.23,6-9,2.45-2.25,5.3-3.17,11-5,6.05-1.94,6.4-1.2,11-3,5.13-2,5.24-3.15,9-4a24.81,24.81,0,0,1,10,0c4.2.71,4,1.56,10,3,5.23,1.26,5.87.72,8,2,2.87,1.72,2.41,3.11,6,6a29.6,29.6,0,0,0,7,4c4.1,1.84,4.83,1.42,8,3a20.66,20.66,0,0,1,7,5c3.4,4,1.55,6.1,5,11,2.47,3.51,4.09,3.38,6,7,.9,1.7,1.31,3.18,2,7,1.86,10.27,3.09,17.44,1,24l-1,3c-2.23,6.71-2.39,7.23-3,9a84.72,84.72,0,0,1-3,8c-1.69,3.58-2.11,3.3-4,7-3.19,6.24-2.47,8-5,10-2.35,1.87-3.57.84-6,3s-1.81,3.92-4,6c-2.59,2.45-4.35.83-9,3-5.12,2.4-4.85,5.25-9,6-2.74.5-3.37-.65-7,0-3.43.62-3.37,1.73-6,2-3.73.38-4.48-1.8-9-2-3.73-.17-3.62,1.3-7,1-4.13-.36-4.59-2.57-9-3-3.46-.34-4.09.93-6,0-2.81-1.37-2.06-4.41-5-6-2.31-1.25-3.29.36-6-1-2.4-1.2-2.29-2.78-5-4-2.05-.92-2.57-.22-4-1-2.73-1.5-1.78-4.58-4-8-3-4.61-7.31-3.06-9-7-1.29-3,1.12-4.25,0-9-.86-3.65-2.4-3.4-3-7-.5-3,.47-3.73,0-8a43.75,43.75,0,0,0-1-5c-1.19-5.12-1.63-5.3-2-8a21.73,21.73,0,0,1,0-7C37.63,96.74,37.79,96.08,39.5,91.5Z"/><path class="cls-3" d="M108.5,168.5c3.71-.88,4.55-.45,7-1,3.24-.72,2.92-1.72,8-4,4.33-1.94,4.67-1.26,8-3a53.55,53.55,0,0,0,7-5c3.75-2.91,5.66-4.4,7-6,.93-1.12.92-1.29,4-6s3.11-4.54,4-6a46.54,46.54,0,0,0,5-12,57.32,57.32,0,0,0,2-11c.43-5.22-.33-4.63,0-11,.3-5.74,1-7.94,0-12a16.42,16.42,0,0,0-2-5c-2.21-3.55-4-3.18-6-6-2.6-3.74-.45-6-3-10-1.4-2.21-3.14-3.26-6-5-5.27-3.2-6.48-1.82-12-5-3.26-1.87-5.68-3.27-8-6a11,11,0,0,0-3-3c-2.37-1.38-4-.57-7-1-4.44-.63-4.09-2.81-9-4a20.71,20.71,0,0,0-9,0,34.5,34.5,0,0,0-6,2c-6.44,2.47-6.76,2.81-10,4-7.34,2.69-8.36,1.9-11,4-1.84,1.46-1.24,1.76-5,7-4.36,6.08-6.54,9.12-10,11-2.29,1.24-3.59,1.28-5,3-1.7,2.08-1.37,3.95-2,7-1.45,7-5.23,7-6,13-.35,2.77.16,5.12,1,9,.89,4.08,1.63,4.67,2,8,.47,4.24-.61,4.53,0,8,.66,3.75,2,3.72,3,8,1.09,4.51-.23,5.08,1,8,1.46,3.45,3.32,2.7,6,7,2.28,3.65,1.68,5.4,4,7,2,1.37,3,.47,5,2,2.55,1.92,1.88,4,4,5s3.29-.86,6,0c2.28.72,2.07,2.24,5,4,2,1.18,2.27.61,6,2,4.58,1.71,4.51,2.72,7,3,3.36.38,3.62-1.43,7-1,3.19.4,3.87,2.13,7,2C105.84,169.45,105.88,169.12,108.5,168.5Z"/><circle class="cls-4" cx="51.5" cy="99.5" r="6"/><circle class="cls-4" cx="55" cy="84" r="6.5"/><ellipse class="cls-4" cx="51.5" cy="113.5" rx="5" ry="4"/><ellipse class="cls-4" cx="51" cy="127.5" rx="4.5" ry="4"/><ellipse class="cls-4" cx="60" cy="143.5" rx="5.5" ry="5"/><ellipse class="cls-4" cx="80.5" cy="156" rx="6" ry="5.5"/><ellipse class="cls-4" cx="113.5" cy="162.5" rx="6" ry="5"/><circle class="cls-4" cx="118.5" cy="150.5" r="5"/><circle class="cls-4" cx="133" cy="151" r="5.5"/><circle class="cls-4" cx="146" cy="139" r="3.5"/><ellipse class="cls-4" cx="148" cy="125.5" rx="4.5" ry="5"/><ellipse class="cls-4" cx="153.5" cy="100" rx="5" ry="5.5"/><circle class="cls-4" cx="146.5" cy="89.5" r="6"/><circle class="cls-4" cx="145.5" cy="75.5" r="5"/><ellipse class="cls-4" cx="133.5" cy="65" rx="4" ry="5.5"/><circle class="cls-4" cx="111" cy="54" r="4.5"/><ellipse class="cls-4" cx="84.5" cy="60.5" rx="7" ry="6"/><ellipse class="cls-4" cx="68.5" cy="66" rx="6" ry="6.5"/></g><g id="Layer_14" data-name="Layer 14"><path class="cls-5" d="M95,52.85a30.16,30.16,0,0,1,.37-4.26c.16-1.13.37-2.69.11-3a.7.7,0,0,0-.41-.08c-.84,0-1.78,2.63-1.78,6.41v.78l-.76.19a16.74,16.74,0,0,1-9.74,0l-.87-.22.12-.89c.19-1.4.35-2.71.51-3.94,1.39-10.82,2-15.76,8-24.28l.3-.43h3a63.47,63.47,0,0,1,12.36.87l.84.14V25a103.22,103.22,0,0,0,1.06,14.11A88.66,88.66,0,0,1,109,51v.72l-.68.23a23.84,23.84,0,0,1-7.39,1.39,39.65,39.65,0,0,0-4.8.5L95,54Z"/><path class="cls-6" d="M93.81,24.15A62.66,62.66,0,0,1,106,25c0,11.11,2,16.74,2,26-5.56,1.85-6.48.93-12,1.85,0-4.63,1.85-8.33-.93-8.33-2.18,0-2.78,4.63-2.78,7.41a18.71,18.71,0,0,1-4.63.69A18.71,18.71,0,0,1,83,51.93C84.85,38,84.85,33.41,91.33,24.15h2.48m0-2H90.29l-.6.85c-6.11,8.73-6.75,13.74-8.17,24.73-.16,1.23-.33,2.53-.51,3.93l-.24,1.77,1.73.43a17.72,17.72,0,0,0,10.23,0l1.22-.3v1.65l2.33-.39a38.41,38.41,0,0,1,4.69-.49,24.69,24.69,0,0,0,7.65-1.44l1.37-.46V51a89.5,89.5,0,0,0-.95-12A102.42,102.42,0,0,1,108,25V23.31L106.33,23a65,65,0,0,0-12.52-.88Z"/><path class="cls-7" d="M93.81,25.15a62.49,62.49,0,0,1,11.19.71,107,107,0,0,0,1.07,13.51A90.49,90.49,0,0,1,107,50.27a21.43,21.43,0,0,1-6.18,1.07c-1.06.06-2.24.12-3.82.34.06-1,.2-2,.32-2.82.28-2,.5-3.59-.37-4.58A2.41,2.41,0,0,0,95,43.52c-3.13,0-3.67,5.32-3.76,7.62a15.86,15.86,0,0,1-3.65.49,15.58,15.58,0,0,1-3.52-.46c.14-1.07.27-2.09.4-3.05,1.36-10.61,1.94-15.11,7.35-23h2m0-1H91.33C84.85,33.41,84.85,38,83,51.93a18.71,18.71,0,0,0,4.63.69,18.71,18.71,0,0,0,4.63-.69c0-2.78.6-7.41,2.78-7.41,2.78,0,.93,3.7.93,8.33,5.56-.93,6.48,0,12-1.85,0-9.26-2-14.89-2-26a62.66,62.66,0,0,0-12.19-.85Z"/><path class="cls-6" d="M96,35a25.67,25.67,0,0,0-2,5h3a13.38,13.38,0,0,0-1-5Z"/><path class="cls-7" d="M96,35a13.38,13.38,0,0,1,1,5H94a25.67,25.67,0,0,1,2-5m.19-2.61-1.08,2.16a26.58,26.58,0,0,0-2.05,5.13L92.61,41H98V40a14.26,14.26,0,0,0-1.05-5.32l-.76-2.29Z"/></g><g id="Layer_12_copy" data-name="Layer 12 copy"><path class="cls-5" d="M73,65.33a32.61,32.61,0,0,1-5.47-9.69c.28-8.11,2.94-12.92,5.29-17.16.74-1.33,1.43-2.58,2-3.88l1-2.12L74.1,34a55.63,55.63,0,0,0-8.21,8.4c-1.53-4-1.87-6.19-1.34-11.6,7.77-5.23,13.4-6.54,20.38-7a30.51,30.51,0,0,1,2.37,6.76c-4,3.62-6.32,9.26-8.19,13.82-.63,1.53-1.22,3-1.79,4.12l-1.13,2.26,1.91-1.66a56.78,56.78,0,0,1,8.52-6.48c.18.51.34,1,.49,1.4a17.52,17.52,0,0,1,1.29,5.47c-2.47,2.53-4.39,4.36-6.09,6A96.25,96.25,0,0,0,73,65.33Z"/><path class="cls-7" d="M84.63,24.37a31.42,31.42,0,0,1,2.11,6.06c-4,3.7-6.25,9.28-8.1,13.8-.62,1.52-1.21,3-1.78,4.09L74.6,52.85l3.81-3.32a57.84,57.84,0,0,1,7.92-6.11l.29.82a17.34,17.34,0,0,1,1.25,5.11c-2.39,2.44-4.26,4.22-5.92,5.8a96.77,96.77,0,0,0-8.9,9.37,31.32,31.32,0,0,1-5-9c.29-7.94,2.91-12.68,5.23-16.85.74-1.34,1.44-2.6,2-3.92l1.95-4.23-3.51,3.06A57.11,57.11,0,0,0,66,41.41c-1.21-3.37-1.47-5.55-1-10.31,7.46-5,12.93-6.29,19.61-6.72m.58-1c-7.89.44-13.51,2-21.14,7.19-.61,6.05-.18,8.24,1.67,12.89a54.22,54.22,0,0,1,8.68-9c-2.54,5.53-7,10.52-7.37,21.31.79,2.81,2.89,6.49,6,10.44,6.23-7.63,8.68-9,15.88-16.4-.18-3.16-.88-4.39-2-7.81a55,55,0,0,0-9.12,6.84c2.28-4.56,4.65-13.24,10.09-18a30.07,30.07,0,0,0-2.63-7.46Z"/><path class="cls-6" d="M85.21,23.34a30.07,30.07,0,0,1,2.63,7.46c-5.44,4.74-7.81,13.42-10.09,18a55,55,0,0,1,9.12-6.84c1.14,3.42,1.84,4.65,2,7.81C81.7,57.1,79.25,58.51,73,66.14c-3.07-3.95-5.17-7.63-6-10.44.35-10.79,4.82-15.79,7.37-21.31a54.22,54.22,0,0,0-8.68,9c-1.84-4.65-2.28-6.84-1.67-12.89,7.63-5.17,13.24-6.75,21.14-7.19m1.12-2.07-1.23.07c-8.88.49-14.67,2.46-22.15,7.53l-.77.52-.09.93c-.65,6.38-.15,8.93,1.8,13.83l1.31,3.31,1.72-2.28a34.71,34.71,0,0,0-1.86,10.45v.31l.08.3c.87,3.08,3,6.93,6.31,11.12l1.54,2,1.59-1.94A94.3,94.3,0,0,1,84,57.33c1.75-1.66,3.73-3.55,6.31-6.19l.61-.63,0-.88a19.83,19.83,0,0,0-1.44-6.39c-.2-.57-.43-1.2-.67-1.94L88,39l-2.12,1.21c-1.12.64-2.15,1.3-3.13,2,1.58-3.61,3.56-7.4,6.4-9.87l.88-.76-.23-1.14A31.94,31.94,0,0,0,87,22.34l-.61-1.07Z"/></g><g id="Layer_12" data-name="Layer 12"><path class="cls-5" d="M57.8,71.22A32.62,32.62,0,0,1,50,63.31c-1.86-7.9-.56-13.24.59-17.95.36-1.47.7-2.87.94-4.28l.38-2.3-1.29,1.94A55.64,55.64,0,0,0,44.87,51c-2.53-3.46-3.43-5.48-4.34-10.84,6.12-7.09,11.21-9.84,17.83-12.07A30.49,30.49,0,0,1,62.42,34c-2.91,4.54-3.66,10.6-4.27,15.48-.2,1.64-.4,3.19-.65,4.45L57,56.38l1.4-2.1a56.83,56.83,0,0,1,6.51-8.49L65.77,47A17.52,17.52,0,0,1,68.46,52c-1.72,3.09-3.09,5.36-4.3,7.36A96.25,96.25,0,0,0,57.8,71.22Z"/><path class="cls-7" d="M58.21,28.65a31.42,31.42,0,0,1,3.63,5.3c-2.84,4.61-3.59,10.6-4.19,15.44-.2,1.63-.39,3.18-.64,4.41l-1,5,2.8-4.21a57.84,57.84,0,0,1,6-8l.5.72a17.34,17.34,0,0,1,2.55,4.61c-1.67,3-3,5.19-4.18,7.15a96.77,96.77,0,0,0-6.12,11.38,31.31,31.31,0,0,1-7.17-7.32c-1.81-7.74-.53-13,.61-17.64.36-1.48.7-2.88.94-4.32l.77-4.6-2.58,3.88A57.11,57.11,0,0,0,44.76,50c-2.06-2.93-2.88-5-3.7-9.68,5.88-6.76,10.82-9.47,17.15-11.64m.29-1.15C51,30,46,33,40,40c1,6,2,8,5,12a54.22,54.22,0,0,1,6-11c-1,6-4,12-1.5,22.5C51,66,54,69,58,72c4-9,6-11,11-20-1-3-2-4-4-7a55,55,0,0,0-7,9c1-5,1-14,5-20a30.07,30.07,0,0,0-4.5-6.5Z"/><path class="cls-6" d="M58.5,27.5A30.07,30.07,0,0,1,63,34c-4,6-4,15-5,20a55,55,0,0,1,7-9c2,3,3,4,4,7-5,9-7,11-11,20-4-3-7-6-8.5-8.5C47,53,50,47,51,41a54.22,54.22,0,0,0-6,11c-3-4-4-6-5-12,6-7,11-10,18.5-12.5M59,25.21l-1.17.39c-8.44,2.81-13.51,6.24-19.39,13.1l-.61.71.15.92C39.08,46.65,40.24,49,43.4,53.2L45.54,56l1.06-2.65a34.71,34.71,0,0,0,1,10.57l.07.3.16.27c1.65,2.75,4.77,5.88,9,9.07l2,1.51,1-2.29a94.3,94.3,0,0,1,6.47-12.21C67.54,58.54,69,56.2,70.75,53l.43-.77-.28-.83a19.83,19.83,0,0,0-3.07-5.78c-.35-.5-.73-1-1.16-1.69l-1.35-2-1.73,1.73c-.91.91-1.74,1.82-2.49,2.73.58-3.9,1.49-8.08,3.57-11.21l.64-1-.52-1a31.94,31.94,0,0,0-4.87-7L59,25.21Z"/></g><g id="text"><path class="cls-5" d="M48.4,77.8c-5.3-4-10.52-10.43-16-17.27-2.93-3.63-6-7.38-9.1-10.87l-.35-.39.12-.51c1.54-6.43,9.68-13.18,12.51-14.65l1.16-.6L37,34.78C39.69,47,45.24,54.57,49.71,60.66a57.5,57.5,0,0,1,5.19,7.89l.17.33-.09.36c-1.07,4.27-3.2,6.4-5.26,8.46l-.61.61Z"/><path class="cls-6" d="M36,35c4,18,14,26,18,34-1,4-3,6-5,8-8-6-16-18-25-28,1.43-6,9.2-12.54,12-14m1.39-3-2.31,1.2c-3,1.59-11.39,8.47-13,15.31l-.24,1,.7.78c3.12,3.47,6.14,7.21,9.07,10.83C37.15,68,42.4,74.55,47.8,78.6l1.39,1,1.23-1.23c2.06-2.06,4.39-4.39,5.53-8.93l.18-.72-.33-.66a59,59,0,0,0-5.28-8c-4.41-6-9.89-13.5-12.56-25.5L37.39,32Z"/><path class="cls-7" d="M35.34,36.57c2.9,11.83,8.35,19.26,12.75,25.27a59.69,59.69,0,0,1,4.84,7.27,14,14,0,0,1-4,6.55c-4.87-3.86-9.8-10-15-16.39-2.84-3.51-5.77-7.13-8.81-10.54,1.43-4.79,7-10,10.23-12.17M36,35c-2.8,1.46-10.57,8-12,14,9,10,17,22,25,28,2-2,4-4,5-8-4-8-14-16-18-34Z"/></g><g id="text-2" data-name="text"><path class="cls-5" d="M38.87,94.45C26.84,87.88,14,78.1,2.84,66.9l-.49-.49.28-.63C6,58.2,14.91,50,23.41,50a11,11,0,0,1,5.94,1.66c4.55,2.84,4.25,9.19,3.87,17.21-.11,2.35-.23,4.78-.24,7.35a27,27,0,0,0,6,3.47c.83.38,1.77.81,3,1.4l.68.34-.15.75c-.52,2.62-.79,4.21-1,5.76s-.53,3.17-1.06,5.82l-.27,1.33Z"/><path class="cls-6" d="M23.41,51a10,10,0,0,1,5.41,1.51C34.15,55.84,32,65.14,32,76.72c4.21,3.16,5.26,3.16,9.48,5.26-1.05,5.26-1.05,6.32-2.11,11.58A162.2,162.2,0,0,1,3.55,66.19C6.93,58.6,15.72,51,23.41,51m0-2c-8.9,0-18.19,8.5-21.69,16.38l-.56,1.26,1,1C13.4,78.87,26.28,88.72,38.39,95.32l2.39,1.3L41.31,94c.53-2.66.8-4.29,1.06-5.85s.52-3.13,1-5.73l.3-1.5-1.37-.68c-1.21-.6-2.16-1-3-1.42A25.88,25.88,0,0,1,34,75.72c0-2.36.13-4.61.23-6.8.4-8.35.71-15-4.34-18.11A12,12,0,0,0,23.41,49Z"/><path class="cls-7" d="M23.41,52a9.05,9.05,0,0,1,4.88,1.36c3.56,2.22,3.28,8,2.93,15.42C31.1,71.3,31,73.92,31,76.72v.5l.4.3a29.58,29.58,0,0,0,6.73,4c.65.29,1.36.62,2.21,1-.43,2.21-.67,3.66-.91,5.07S39,90.17,38.63,92A163.28,163.28,0,0,1,4.75,66c3.33-6.87,11.42-14,18.66-14m0-1C15.72,51,6.93,58.6,3.55,66.19a162.2,162.2,0,0,0,35.8,27.37C40.4,88.3,40.4,87.25,41.45,82c-4.21-2.11-5.26-2.11-9.48-5.26,0-11.58,2.18-20.88-3.16-24.21A10,10,0,0,0,23.41,51Z"/><path class="cls-8" d="M19.5,63.5c-1.38,1.38,4.43,7.84,6,7,1-.54.53-2.47-2-5C21.5,63.5,20.5,62.5,19.5,63.5Z"/></g><g id="its"><path class="cls-9" d="M30.5,25.5s.53-1.06,2.73-1.63a12.92,12.92,0,0,1,3.27-.37"/><path class="cls-9" d="M33.5,32.5v-9"/><line class="cls-9" x1="41" y1="22" x2="38" y2="26"/><path class="cls-9" d="M46,22a2.94,2.94,0,0,0-3,3c0,2,2,3,2,5,0,3-4,2-4,2"/><polyline class="cls-9" points="28 22 28 32 28 33"/></g><g id="time"><path class="cls-5" d="M162.72,64.12c-4.23-5.28-4.24-10.42-3.21-22.71l.05-.62.57-.23c5.22-2.09,8.34-3.07,14.37-3.07h1.22l-.24,1.2A32.22,32.22,0,0,0,175,44v.82l-5.15,1-.08.38,4.73-.94v5.94l-4.63,1.54-.1.51,5.74-1v6.76l-.5.29c-.29.17-7.17,4.08-11.25,5.1l-.62.16Z"/><path class="cls-6" d="M174.5,38.5A33.06,33.06,0,0,0,174,44l-5,1-.5,2.5,5-1v4L169,52l-.5,2.5,6-1v5s-7,4-11,5c-4-5-4-10-3-22,5-2,8-3,14-3m2.44-2H174.5c-6.21,0-9.4,1-14.74,3.14l-1.15.46-.1,1.23c-1,12.31-1,17.87,3.43,23.42l.8,1,1.25-.31c4.22-1.05,11.21-5,11.51-5.2l1-.58V51.14l-1,.17V45.74l.5-.1V44a31.22,31.22,0,0,1,.46-5.11l.48-2.39Z"/><path class="cls-7" d="M173.32,39.51a35.49,35.49,0,0,0-.3,3.66L168.8,44l-.65.13-.13.65-.5,2.5-.29,1.47,1.47-.29,3.8-.76v2.06l-3.82,1.27-.55.18-.11.57-.5,2.5-.28,1.42,1.43-.24,4.84-.81v3.23a61.89,61.89,0,0,1-9.62,4.44c-3.31-4.48-3.33-9.31-2.44-20.16,4.38-1.74,7.13-2.57,11.87-2.69m1.18-1c-6,0-9,1-14,3-1,12-1,17,3,22,4-1,11-5,11-5v-5l-6,1L169,52l4.5-1.5v-4l-5,1L169,45l5-1a33.06,33.06,0,0,1,.5-5.5Z"/><path class="cls-5" d="M151,63H137.19l-.17-.8c-1.8-8.66-.9-15.43,2.7-20.11A16.34,16.34,0,0,1,150.94,36l1.72-.1-.77,1.54a23,23,0,0,0-1.63,6.79,31.34,31.34,0,0,1,9.25-8.12l1.56-.86L160,62.87l-9,1.28Zm0-2V56.81A41.9,41.9,0,0,0,150,61Z"/><path class="cls-6" d="M160,37l-1,25-7,1V51c-2,4.36-3.32,10.83-3,11h-4V51c-2,5-1,11-1,11h-6c-5-24,13-25,13-25s-2,4-2,12c2-7,11-12,11-12M149,62h0m13.14-28.48L159,35.25a34.55,34.55,0,0,0-7.16,5.54,15.91,15.91,0,0,1,.92-2.91l1.48-3.06-3.39.18a17.41,17.41,0,0,0-12,6.48c-3.78,4.92-4.75,12-2.89,20.92l.33,1.59H150v1.31l2.28-.33,7-1,1.65-.24.07-1.66,1-25,.14-3.56Z"/><path class="cls-7" d="M149.45,38.26A35.54,35.54,0,0,0,148,49v7.14l2-6.87c1.37-4.8,6.38-8.68,9-10.42L158,61.13l-5,.72V46.38l-1.91,4.2a45.16,45.16,0,0,0-2.43,7.24A31,31,0,0,0,148,61h-2V45.81l-1.93,4.82A23.46,23.46,0,0,0,142.87,61h-4c-1.46-7.67-.63-13.61,2.47-17.67a14.27,14.27,0,0,1,8.16-5.07M160,37s-9,5-11,12c0-8,2-12,2-12s-18,1-13,25h6s-1-6,1-11V62h4c-.29-.17,1-6.64,3-11V63l7-1,1-25ZM149,62h0Z"/><path class="cls-5" d="M131.2,64.44a14.27,14.27,0,0,1-3.19-.32l1-23.33A15.42,15.42,0,0,1,136,39c-.31,3.32-1.76,19.83-1,25.09A21.19,21.19,0,0,1,131.2,64.44Z"/><path class="cls-7" d="M135.4,39.53c-.38,4.2-1.6,18.65-1,24.15a20.37,20.37,0,0,1-3.17.26,14.7,14.7,0,0,1-2.67-.23l.94-22.63a14.87,14.87,0,0,1,5.92-1.56m1.1-1a15.39,15.39,0,0,0-8,2l-1,24a12.83,12.83,0,0,0,3.7.44,21.93,21.93,0,0,0,4.3-.44c-1-5,1-26,1-26Z"/><path class="cls-6" d="M136.5,38.5s-2,21-1,26a21.93,21.93,0,0,1-4.3.44,12.83,12.83,0,0,1-3.7-.44l1-24a15.39,15.39,0,0,1,8-2m0-2a17.4,17.4,0,0,0-9.11,2.34l-.85.56,0,1-1,24-.06,1.5,1.43.48a14.62,14.62,0,0,0,4.34.55,24,24,0,0,0,4.69-.48l2-.39-.39-2c-.77-3.86.48-19.66,1-25.42l.21-2.19Z"/><path class="cls-5" d="M113,65.86a110.39,110.39,0,0,0,1-15.75,7.53,7.53,0,0,0-1.3.44A4.36,4.36,0,0,1,111,51h-1V41.32l.63-.25A46.45,46.45,0,0,1,127,38h1v8.72l-.68.23A25,25,0,0,0,123,48.62V62.54l-.45.3a30.93,30.93,0,0,1-8.24,4.12l-1.54.51Z"/><path class="cls-6" d="M127,39v7a25.67,25.67,0,0,0-5,2V62a29.94,29.94,0,0,1-8,4,115.62,115.62,0,0,0,1-17c-2,0-3,1-4,1V42a45.29,45.29,0,0,1,16-3m2-2h-2a47.5,47.5,0,0,0-16.74,3.14l-1.26.5V52h2a5.1,5.1,0,0,0,2-.49,105.27,105.27,0,0,1-1,14.21l-.46,3.2,3.07-1a31.81,31.81,0,0,0,8.48-4.23l.89-.59V49.24a27.88,27.88,0,0,1,3.63-1.35l1.37-.46V37Z"/><path class="cls-7" d="M126,40v5.27a23.83,23.83,0,0,0-4.45,1.83l-.55.28V61.46a28.4,28.4,0,0,1-5.79,3A120.78,120.78,0,0,0,116,49V48h-1a7.42,7.42,0,0,0-3,.67v-6A44.75,44.75,0,0,1,126,40m1-1a45.29,45.29,0,0,0-16,3v8c1,0,2-1,4-1a115.62,115.62,0,0,1-1,17,29.94,29.94,0,0,0,8-4V48a25.67,25.67,0,0,1,5-2V39Z"/><path class="cls-5" d="M179.36,53.74h-.12c-1.63-.24-2.71-2.35-2.75-5.36a12.94,12.94,0,0,1,10.94-13.3l1.12-.2L188.6,36c.32,6.37-3.79,13.12-6.63,16.11-1.39,1.46-2.12,1.63-2.54,1.63Z"/><path class="cls-6" d="M187.6,36c.4,8-6.65,16.69-8.17,16.69h-.05c-3.13-.46-3.6-14.6,8.22-16.69m1.88-2.36-2.23.39c-8.25,1.46-11.85,8.23-11.76,14.3.05,3.59,1.43,6,3.6,6.34l.34,0c1,0,2-.58,3.27-1.94,3-3.11,7.24-10.17,6.9-16.85l-.12-2.26Z"/><path class="cls-7" d="M186.6,37.29c-.29,6.81-5.75,13.62-7.18,14.41-.32-.23-.91-1.31-.94-3.37,0-3.38,1.65-9.29,8.12-11m1-1.24c-11.82,2.09-11.35,16.23-8.22,16.69h.05c1.51,0,8.57-8.73,8.17-16.69Z"/><path class="cls-5" d="M177.38,62.77a2.48,2.48,0,0,1-1.47-.46c-1.34-1-1.4-3.11-.13-4.85A4.16,4.16,0,0,1,179,55.62a2.48,2.48,0,0,1,1.47.46,2.7,2.7,0,0,1,1,2.32,4.59,4.59,0,0,1-.91,2.53,4.16,4.16,0,0,1-3.19,1.84Z"/><path class="cls-6" d="M179,56.62a1.47,1.47,0,0,1,.88.27c.87.63.83,2.18-.09,3.45a3.16,3.16,0,0,1-2.38,1.43,1.47,1.47,0,0,1-.88-.27c-.87-.63-.83-2.18.09-3.45A3.16,3.16,0,0,1,179,56.62m0-2a5.09,5.09,0,0,0-4,2.25,5.6,5.6,0,0,0-1.1,3.09,3.69,3.69,0,0,0,1.45,3.16,3.47,3.47,0,0,0,2.05.65,5.09,5.09,0,0,0,4-2.25,5.6,5.6,0,0,0,1.1-3.09A3.69,3.69,0,0,0,181,55.27a3.47,3.47,0,0,0-2.05-.65Z"/><path class="cls-7" d="M179,57.62a.48.48,0,0,1,.29.08.82.82,0,0,1,.22.65,2.62,2.62,0,0,1-.53,1.41,2.2,2.2,0,0,1-1.57,1,.48.48,0,0,1-.29-.08.82.82,0,0,1-.22-.65,2.62,2.62,0,0,1,.53-1.41,2.2,2.2,0,0,1,1.57-1m0-1A3.16,3.16,0,0,0,176.59,58c-.92,1.27-1,2.82-.09,3.45a1.47,1.47,0,0,0,.88.27,3.16,3.16,0,0,0,2.38-1.43c.92-1.27,1-2.82.09-3.45a1.47,1.47,0,0,0-.88-.27Z"/></g><g id="headBG"><path class="cls-10" d="M49.5,120.5c2,16,12.91,19.75,24,26,20,11.26,42.43,4.57,51,2,20-6,18.44-20,19-29,.63-10,1.67-26.57-10-40-10.81-12.44-28.54-17.64-44-14-2.91.69-19.21,4.52-25,17-2.89,6.23,1.63,8.56-4,17C56.5,105.5,48.14,109.58,49.5,120.5Z"/></g><g id="headPath"><path class="cls-10" d="M72.5,142.5a23.61,23.61,0,0,0,21,15c12.37.5,18-4,22-13"/><path class="cls-11" d="M126.5,115.5c-7-21-44-24-59-11"/></g><g id="mouth"><path class="cls-12" d="M58.5,117.5s6,6,15,14c5,8,11,13.43,19,14,8.79,0,14,0,22-8a150.47,150.47,0,0,0,17-8s-15.58,9.87-35,8C73.57,135.3,58.5,117.5,58.5,117.5Z"/><path class="cls-11" d="M128.75,126.21a7,7,0,0,1,2.5,9.58"/><path class="cls-11" d="M56.5,122.5a7,7,0,0,1,7-7"/></g><g id="stomach"><path class="cls-13" d="M111.5,139.5c0,1.66-9.1,6-16,6s-11-2.34-11-4,7.6-3,14.5-3S111.5,137.84,111.5,139.5Z"/></g><g id="mask"><path class="cls-14" d="M142.5,114.5c-3.43,10.45,31,39,45,31,1.94-1.11-10-8-19-19-8.85-10.82-12-20-20-17C143.52,111.37,142.77,113.69,142.5,114.5Z"/><path class="cls-14" d="M146.5,103.5c-.72-5.8,11.18-5.75,14-8,25-20,34.83-22.21,37-19,2.42,3.58-6,16-20,25-9.59,6.17-16,9-25,9"/><path class="cls-14" d="M57.5,103.5c-1.78-1.87,1-9.44,1-10,0-2-1.89-2.54-2-4-.15-2.11,2-4,9-6,9.1-2.6,8.69-11,15-11,10,0,12,7,13,7,2,0,15.25,2.4,17,1,5-4,7.71-4.94,11-4,7,2,6,5.63,10,11,3,4,8.07,3.28,11,8,1.24,2,1.51,4,2,8,.88,7.18,0,12-1,15,0,0-6-11-24-13-8-7-23.14-11.66-42-7C67.5,96.5,62.5,100.5,57.5,103.5Z"/><path class="cls-14" d="M58.5,94c2-2.5,4-4.5,7-4.5"/><path class="cls-14" d="M144.5,109.5c0-3-3-6.5-7-7"/><path class="cls-14" d="M151.5,109.5a6.46,6.46,0,0,1-.07,1.13,4.61,4.61,0,0,1-1.59,3.16,3.89,3.89,0,0,1-2.35.71c-2.21,0-3-.41-3-4s-.21-7,2-7S151.5,105.91,151.5,109.5Z"/></g><g id="eyes"><path class="cls-15" d="M75.5,84.5c-2,5.16.16,9.3,3,11,5,3,8,1,10-6,1.84-6.45.65-10.17-2.45-11.35S77.46,79.34,75.5,84.5Z"/><path class="cls-15" d="M125.5,97.5c-2,5.16-7.78,5.78-10.44,4.77s-4.3-5.53-2.56-10.77c1-3,3-8,9-6C125.41,86.8,127.46,92.34,125.5,97.5Z"/><ellipse class="cls-12" cx="84.5" cy="92.5" rx="4" ry="2" transform="translate(-26.18 151.21) rotate(-75.53)"/><path class="cls-12" d="M112.59,96.89c.66-2.11,2.1-3.53,3.2-3.19s1.37,2.68.71,4.79-1,3-2,3C113.34,101.5,111.93,99,112.59,96.89Z"/></g></svg>